<?xml version="1.0" encoding="utf-8"?>
<!-- Generator: Adobe Illustrator 16.0.0, SVG Export Plug-In . SVG Version: 6.00 Build 0)  -->
<!DOCTYPE svg PUBLIC "-//W3C//DTD SVG 1.1//EN" "http://www.w3.org/Graphics/SVG/1.1/DTD/svg11.dtd">
<svg version="1.1" id="AppNexus_Logo" xmlns="http://www.w3.org/2000/svg" xmlns:xlink="http://www.w3.org/1999/xlink" x="0px"
	 y="0px" width="18.369px" height="18.369px" viewBox="-8.685 71.315 18.369 18.369"
	 enable-background="new -8.685 71.315 18.369 18.369" xml:space="preserve">
<path fill="#151515" d="M26.154,35.354l-3.2,9.169h1.662l0.616-1.754h3.6l0.585,1.754h1.723l-3.169-9.169H26.154z M25.723,41.17
	l1.292-3.816l1.292,3.816H25.723z M36.861,38.215c-0.4-0.338-0.954-0.554-1.6-0.554c-0.739,0-1.477,0.277-1.877,0.892l-0.092-0.708
	h-1.323v9.015h1.6V44c0.185,0.369,0.923,0.646,1.723,0.646c0.677,0,1.2-0.215,1.6-0.523c0.8-0.646,1.169-1.661,1.169-2.953
	C38.062,39.877,37.631,38.861,36.861,38.215 M36,42.738c-0.215,0.308-0.584,0.523-1.077,0.523c-1.261,0-1.507-1.17-1.507-2.123
	c0-0.955,0.246-2.154,1.507-2.154c0.493,0,0.831,0.216,1.077,0.523c0.338,0.431,0.431,1.046,0.431,1.631
	C36.431,41.723,36.338,42.308,36,42.738 M43.785,38.215c-0.4-0.338-0.955-0.554-1.601-0.554c-0.738,0-1.478,0.277-1.877,0.892
	l-0.092-0.708h-1.354v9.015h1.6V44c0.338,0.369,0.955,0.646,1.723,0.646c0.677,0,1.2-0.215,1.632-0.523
	c0.799-0.646,1.199-1.662,1.199-2.953C44.954,39.877,44.554,38.861,43.785,38.215 M42.923,42.738
	c-0.216,0.308-0.585,0.523-1.077,0.523c-1.262,0-1.507-1.17-1.507-2.123c0-0.955,0.247-2.154,1.507-2.154
	c0.492,0,0.831,0.216,1.077,0.523c0.339,0.431,0.431,1.046,0.431,1.631C43.323,41.723,43.262,42.308,42.923,42.738 M51.539,41.539
	l-3.816-6.185h-1.846v9.169h1.785v-6.308l3.846,6.308h1.785v-9.169h-1.754V41.539L51.539,41.539z M58.123,43.016
	c-0.215,0.215-0.523,0.338-0.984,0.338c-0.432,0-0.77-0.153-0.984-0.369c-0.309-0.307-0.492-0.892-0.492-1.262h4.461
	c0-0.184,0-0.492,0-0.492c0.031-0.831-0.093-1.6-0.584-2.338c-0.555-0.831-1.447-1.23-2.432-1.23c-0.923,0-1.631,0.338-2.123,0.831
	c-0.646,0.646-0.953,1.6-0.953,2.646c0,1.076,0.369,2.031,1.016,2.646c0.522,0.492,1.199,0.83,2.092,0.83
	c0.83,0,1.661-0.277,2.246-0.953c0.246-0.309,0.523-0.709,0.554-1.262H58.4C58.369,42.77,58.246,42.861,58.123,43.016 M56,39.446
	c0.215-0.308,0.615-0.523,1.107-0.523c0.462,0,0.801,0.154,1.016,0.4c0.246,0.277,0.4,0.646,0.4,1.169h-2.893
	C55.662,39.938,55.785,39.723,56,39.446 M64.861,37.815l-1.445,2.154l-1.478-2.154h-1.847l2.34,3.292l-2.309,3.416h1.754
	l1.445-2.216l1.478,2.216h1.815l-2.277-3.385l2.277-3.323H64.861z M71.323,41.323c0,0.522-0.123,1.138-0.493,1.507
	c-0.184,0.186-0.461,0.34-0.83,0.34c-0.83,0-1.17-0.493-1.17-1.262v-4.093h-1.6v4.431c0,1.416,0.893,2.369,2.309,2.369
	c0.83,0,1.568-0.338,1.907-0.984l0.122,0.923h1.324v-6.738h-1.6v3.508H71.323z M77.6,40.523c-0.646-0.093-0.83-0.124-1.416-0.186
	c-0.368-0.061-0.769-0.185-0.769-0.677c0-0.338,0.216-0.584,0.522-0.708c0.246-0.092,0.463-0.092,0.678-0.092
	c0.338,0,0.677,0.092,0.861,0.308c0.154,0.154,0.277,0.431,0.277,0.615h1.507c0-0.523-0.215-0.984-0.584-1.354
	c-0.493-0.523-1.292-0.77-2.093-0.77c-0.83,0-1.538,0.246-2.031,0.677c-0.399,0.338-0.676,0.831-0.676,1.507
	c0,0.831,0.615,1.6,1.507,1.785c0.585,0.123,1.262,0.153,1.847,0.246c0.4,0.061,0.677,0.307,0.677,0.707
	c0,0.738-0.831,0.831-1.354,0.831c-0.461,0-0.769-0.122-1.015-0.339c-0.216-0.153-0.37-0.461-0.37-0.8h-1.506
	c0,0.708,0.307,1.2,0.707,1.569c0.554,0.523,1.293,0.77,2.154,0.77c0.923,0,1.754-0.215,2.276-0.77
	c0.339-0.338,0.585-0.8,0.585-1.445C79.416,41.354,78.646,40.677,77.6,40.523"/>
<path fill="#FF8700" d="M9.685,71.315V75.9c-2.523,0-4.584-2.062-4.584-4.585H9.685z M3.5,71.315h-6
	c0.031,3.23,1.323,6.276,3.6,8.554c2.308,2.308,5.323,3.569,8.584,3.6V77.5C6.269,77.5,3.5,74.73,3.5,71.315z M5.1,89.685h4.584
	V85.1c-2.123,0-4.123-0.492-5.938-1.354C4.608,85.53,5.1,87.53,5.1,89.685z M-8.685,85.1v4.585H-4.1
	C-4.1,87.161-6.162,85.1-8.685,85.1z M-8.685,77.5v5.999c3.416,0,6.185,2.801,6.185,6.186h6c-0.031-3.23-1.323-6.277-3.6-8.584
	C-2.408,78.823-5.454,77.53-8.685,77.5z M-4.1,71.315h-4.584V75.9c2.123,0,4.123,0.492,5.938,1.354
	C-3.607,75.469-4.1,73.438-4.1,71.315z"/>
</svg>
